<svg xmlns="http://www.w3.org/2000/svg" data-name="Layer 1" viewBox="0 0 32 40" x="0px" y="0px"><title>UI</title><path d="M27,3H5A4.81,4.81,0,0,0,0,7.57v9.82A4.81,4.81,0,0,0,5,22H20.34a3.28,3.28,0,0,1,2.16.79l7.83,7A1,1,0,0,0,32,29V7.57A4.81,4.81,0,0,0,27,3Zm3,23.77-6.16-5.5a5.23,5.23,0,0,0-3.5-1.3H5a2.81,2.81,0,0,1-3-2.57V7.57A2.81,2.81,0,0,1,5,5H27a2.81,2.81,0,0,1,3,2.57Z"/><path d="M16,7a1,1,0,0,0-1,1v5a1,1,0,0,0,2,0V8A1,1,0,0,0,16,7Z"/><path d="M16.71,16.29a1,1,0,0,0-1.42,0,1.15,1.15,0,0,0-.21.33.94.94,0,0,0,0,.76,1.16,1.16,0,0,0,.21.33,1,1,0,0,0,1.42,0,1.16,1.16,0,0,0,.21-.33.94.94,0,0,0,0-.76A1.15,1.15,0,0,0,16.71,16.29Z"/><text x="0" y="47" fill="#000000" font-size="5px" font-weight="bold" font-family="'Helvetica Neue', Helvetica, Arial-Unicode, Arial, Sans-serif">Created by Kantor Tegalsari</text><text x="0" y="52" fill="#000000" font-size="5px" font-weight="bold" font-family="'Helvetica Neue', Helvetica, Arial-Unicode, Arial, Sans-serif">from the Noun Project</text></svg>