<svg id="FontAwsome_info_" data-name="FontAwsome (info)" xmlns="http://www.w3.org/2000/svg" width="15" height="40" viewBox="0 0 15 40">
  <path id="FontAwsome_info_2" data-name="FontAwsome (info)" d="M1.563,33.143H3.125V21.857H1.563A1.562,1.562,0,0,1,0,20.295V16.563A1.562,1.562,0,0,1,1.563,15h8.75a1.562,1.562,0,0,1,1.563,1.563v16.58h1.563A1.562,1.562,0,0,1,15,34.705v3.732A1.562,1.562,0,0,1,13.438,40H1.563A1.562,1.562,0,0,1,0,38.438V34.705A1.562,1.562,0,0,1,1.563,33.143ZM7.5,0a5.625,5.625,0,1,0,5.625,5.625A5.625,5.625,0,0,0,7.5,0Z" fill="#fff"/>
</svg>
