<svg xmlns="http://www.w3.org/2000/svg" width="60" height="80" viewBox="0 0 60 80">
  <path id="Icon_awesome-clipboard-check" data-name="Icon awesome-clipboard-check" d="M52.5,10H40a10,10,0,1,0-20,0H7.5A7.5,7.5,0,0,0,0,17.5v55A7.5,7.5,0,0,0,7.5,80h45A7.5,7.5,0,0,0,60,72.5v-55A7.5,7.5,0,0,0,52.5,10ZM30,6.25A3.75,3.75,0,1,1,26.25,10,3.741,3.741,0,0,1,30,6.25ZM48.938,42.469,26.594,64.625a1.877,1.877,0,0,1-2.656-.016L11.031,51.594a1.877,1.877,0,0,1,.016-2.656l4.438-4.406a1.877,1.877,0,0,1,2.656.016l7.188,7.25L41.891,35.359a1.877,1.877,0,0,1,2.656.016l4.406,4.438A1.877,1.877,0,0,1,48.938,42.469Z" fill="#fff"/>
</svg>
