<svg xmlns="http://www.w3.org/2000/svg" width="35" height="40" viewBox="0 0 35 40">
  <path id="Icon_awesome-building" data-name="Icon awesome-building" d="M34.063,37.5H32.5V1.875A1.875,1.875,0,0,0,30.625,0H4.375A1.875,1.875,0,0,0,2.5,1.875V37.5H.938A.938.938,0,0,0,0,38.438V40H35V38.438A.938.938,0,0,0,34.063,37.5ZM10,5.938A.938.938,0,0,1,10.938,5h3.125A.938.938,0,0,1,15,5.938V9.063a.938.938,0,0,1-.937.938H10.938A.938.938,0,0,1,10,9.063Zm0,7.5a.938.938,0,0,1,.938-.937h3.125a.938.938,0,0,1,.938.938v3.125a.938.938,0,0,1-.937.938H10.938A.938.938,0,0,1,10,16.563ZM14.063,25H10.938A.938.938,0,0,1,10,24.063V20.938A.938.938,0,0,1,10.938,20h3.125a.938.938,0,0,1,.938.938v3.125A.938.938,0,0,1,14.063,25ZM20,37.5H15V30.938A.938.938,0,0,1,15.938,30h3.125a.938.938,0,0,1,.938.938Zm5-13.437a.938.938,0,0,1-.937.938H20.938A.938.938,0,0,1,20,24.063V20.938A.938.938,0,0,1,20.938,20h3.125a.938.938,0,0,1,.938.938Zm0-7.5a.938.938,0,0,1-.937.938H20.938A.938.938,0,0,1,20,16.563V13.438a.938.938,0,0,1,.938-.937h3.125a.938.938,0,0,1,.938.938Zm0-7.5a.938.938,0,0,1-.937.938H20.938A.938.938,0,0,1,20,9.063V5.938A.938.938,0,0,1,20.938,5h3.125A.938.938,0,0,1,25,5.938Z" fill="#fff"/>
</svg>
