<svg id="Icon_awesome-file-import" data-name="Icon awesome-file-import" xmlns="http://www.w3.org/2000/svg" width="50" height="50" viewBox="0 0 50 50">
  <path id="Icon_awesome-file-import-2" data-name="Icon awesome-file-import" d="M1.563,28.125A1.567,1.567,0,0,0,0,29.688v3.125a1.567,1.567,0,0,0,1.563,1.563H12.5v-6.25ZM49.316,10.254,39.756.684A2.342,2.342,0,0,0,38.1,0h-.6V12.5H50v-.6A2.336,2.336,0,0,0,49.316,10.254ZM34.375,13.281V0H14.844A2.338,2.338,0,0,0,12.5,2.344V28.125H25V21.758a1.566,1.566,0,0,1,2.676-1.1l9.336,9.424a1.662,1.662,0,0,1,0,2.344l-9.346,9.414a1.566,1.566,0,0,1-2.676-1.1V34.375H12.5V47.656A2.338,2.338,0,0,0,14.844,50H47.656A2.338,2.338,0,0,0,50,47.656V15.625H36.719A2.351,2.351,0,0,1,34.375,13.281Z" fill="#fff"/>
</svg>
