<svg id="Icon_awesome-archive" data-name="Icon awesome-archive" xmlns="http://www.w3.org/2000/svg" width="57.143" height="50" viewBox="0 0 57.143 50">
  <path id="Icon_awesome-archive-2" data-name="Icon awesome-archive" d="M3.571,48.679A3.568,3.568,0,0,0,7.143,52.25H50a3.568,3.568,0,0,0,3.571-3.571V16.536h-50ZM21.429,25.018a1.343,1.343,0,0,1,1.339-1.339H34.375a1.343,1.343,0,0,1,1.339,1.339v.893a1.343,1.343,0,0,1-1.339,1.339H22.768a1.343,1.343,0,0,1-1.339-1.339ZM53.571,2.25h-50A3.568,3.568,0,0,0,0,5.821v5.357a1.791,1.791,0,0,0,1.786,1.786H55.357a1.791,1.791,0,0,0,1.786-1.786V5.821A3.568,3.568,0,0,0,53.571,2.25Z" transform="translate(0 -2.25)" fill="#fff"/>
</svg>
