<svg id="SvgjsSvg1027" width="288" height="288" xmlns="http://www.w3.org/2000/svg" version="1.1" xmlns:xlink="http://www.w3.org/1999/xlink" xmlns:svgjs="http://svgjs.com/svgjs"><defs id="SvgjsDefs1028"></defs><g id="SvgjsG1029"><svg xmlns="http://www.w3.org/2000/svg" width="288" height="288" version="1.0" viewBox="0 0 512 512"><g transform="matrix(.1 0 0 -.1 0 512)" fill="#ffffff" class="color000 svgShape"><path d="M1055 5069c-166-34-332-165-405-321-88-188-77-384 32-558 23-38 35-66 29-68-26-9-117-84-152-127-21-25-50-70-64-99-51-103-55-138-55-456 0-289 1-296 24-345 25-54 70-98 126-124 31-14 102-16 580-16 544 0 545 0 590 22l46 23 44-23c45-22 46-22 590-22 540 0 545 0 588 22l43 22 47-22c46-21 59-22 527-25 264-2 512-1 552 3 94 9 164 49 208 119l30 49 3 299c3 327-1 364-55 476-32 64-126 170-181 203-21 13-38 24-40 25-2 1 15 33 38 71 142 235 109 513-84 708-148 150-349 207-551 155-205-53-367-214-420-420-13-49-16-91-12-170 5-117 26-187 83-278 19-29 34-56 34-60 0-4-23-22-51-41-28-19-68-54-89-78l-39-44-23 31c-22 30-124 114-149 122-7 2 2 25 25 60 111 166 124 389 34 574-45 95-167 218-260 262-226 110-491 66-667-109-103-103-159-226-168-374-8-133 23-253 94-357 19-30 30-54 24-56-26-9-130-93-151-122l-23-32-38 45c-21 25-64 61-94 82l-55 36 24 32c39 52 75 132 92 204 21 90 14 235-16 320-59 168-205 313-369 364-77 24-223 33-296 18zm250-217c263-103 327-441 120-631-184-168-477-115-589 107-111 219 8 476 249 538 61 16 159 10 220-14zm1207 17c241-51 372-308 268-527-52-109-134-178-250-208-225-57-445 101-467 336-10 107 42 239 123 310 64 56 162 96 246 99 15 1 51-4 80-10zm1270 0c196-42 324-224 297-424-17-125-97-231-217-288-60-29-77-32-157-32-76 0-99 4-148 27-80 38-158 114-193 191-26 54-29 73-29 157 0 82 4 103 27 152 49 106 139 183 248 212 68 18 104 19 172 5zm-2797-921c52-20 78-23 190-23 119 0 136 3 195 28 54 22 72 25 99 17 92-26 177-105 211-197 18-49 20-78 20-327 0-241-2-275-16-280-9-3-242-6-519-6-425 0-504 2-514 14-9 11-12 88-9 293l3 278 34 63c39 72 97 124 168 153 52 20 51 20 138-13zm1455-29c83 0 113 4 184 29 80 28 86 28 127 14 98-33 174-113 204-216 20-65 22-555 3-574-17-17-1019-17-1036 0-9 9-12 84-12 275 0 216 3 271 16 310 34 98 105 173 196 204 46 15 49 15 133-13 73-24 103-29 185-29zm1085 29c51-20 78-23 185-22 111 0 133 3 197 27l72 27 51-19c78-30 134-81 172-159l33-66 3-274c2-200 0-277-9-288-10-12-93-14-525-14-512 0-513 0-525 21-8 15-10 100-7 283 5 300 10 323 86 407 50 56 152 113 187 105 11-3 47-15 80-28zM4553 2821c-74-27-124-65-243-186-58-59-189-188-292-287l-188-180-50 56c-31 33-74 66-108 83l-57 28-535 6c-568 8-599 10-820 63-151 37-280 49-397 37-294-30-563-179-770-426-42-49-80-91-84-93-4-2-43 30-86 72-84 80-117 95-162 76-31-12-737-740-753-776-28-61-32-57 568-629 311-297 588-559 616-582 66-57 102-58 159-6 23 21 192 192 375 380l334 342 0 45c0 39-5 51-40 87-22 23-39 43-38 44 2 1 50 8 108 15 73 9 343 15 895 20 716 6 796 8 855 24 91 25 216 86 275 133 53 42 912 1046 951 1110 122 206 20 453-224 539-86 30-212 32-289 5zm242-205c133-63 158-163 67-274-141-174-827-974-862-1006-24-21-67-50-97-63-127-58-93-56-948-63-740-6-802-8-978-29l-189-23-86 84c-48 46-190 183-316 305l-229 222 29 42c50 72 163 186 246 249 100 76 222 134 335 161 121 29 311 23 462-15 225-57 248-59 807-63 511-5 522-5 559-26 94-53 114-218 37-309-48-57-56-58-466-58-214 0-385-4-400-10-34-12-60-55-60-98 0-26 8-41 33-64l32-29 417 3 417 3 57 27c115 54 201 170 214 288l6 55 337 337c249 250 348 342 381 357 61 28 132 27 195-3zm-3482-1281l505-490-56-60c-31-33-154-160-273-281l-217-222-508 485c-280 266-509 488-509 493 0 12 537 571 546 568 3-2 234-223 512-493z" fill="#ffffff" class="color000 svgShape"></path><path d="M2337 1739 c-29 -17 -49 -68 -42 -106 14 -78 102 -109 163 -58 72 6027 176 -68 175 -19 0 -43 -5 -53 -11z" fill="#ffffff" class="color000 svgShape"></path></g></svg></g></svg>