<svg id="settings_white" xmlns="http://www.w3.org/2000/svg" width="79.997" height="80" viewBox="0 0 79.997 80">
  <path id="settings_1_" data-name="settings (1)" d="M75.61,31.313l-6.267-.8a31.5,31.5,0,0,0-1.9-4.58l3.87-4.983a4.955,4.955,0,0,0-.407-6.6l-5.25-5.25a4.968,4.968,0,0,0-6.617-.423l-4.977,3.87a31.387,31.387,0,0,0-4.583-1.9l-.8-6.257A4.992,4.992,0,0,0,43.733,0H36.267a4.992,4.992,0,0,0-4.953,4.39l-.8,6.267a31.023,31.023,0,0,0-4.583,1.9l-4.98-3.87a4.959,4.959,0,0,0-6.6.407l-5.25,5.247a4.969,4.969,0,0,0-.423,6.62l3.87,4.98a31.133,31.133,0,0,0-1.9,4.58l-6.257.8A4.992,4.992,0,0,0,0,36.267v7.467a4.992,4.992,0,0,0,4.39,4.953l6.267.8a31.5,31.5,0,0,0,1.9,4.58l-3.87,4.983a4.955,4.955,0,0,0,.407,6.6l5.25,5.25a4.972,4.972,0,0,0,6.617.42l4.98-3.87a30.773,30.773,0,0,0,4.58,1.9l.8,6.253A4.993,4.993,0,0,0,36.267,80h7.467a4.992,4.992,0,0,0,4.953-4.39l.8-6.267a31.5,31.5,0,0,0,4.58-1.9l4.983,3.87a4.955,4.955,0,0,0,6.6-.407l5.25-5.25a4.965,4.965,0,0,0,.423-6.617l-3.87-4.98a30.775,30.775,0,0,0,1.9-4.58l6.253-.8A4.992,4.992,0,0,0,80,43.733V36.267a4.986,4.986,0,0,0-4.387-4.953ZM40,56.667A16.667,16.667,0,1,1,56.667,40,16.686,16.686,0,0,1,40,56.667Z" transform="translate(0 0)" fill="#fff"/>
</svg>
