<svg id="users" xmlns="http://www.w3.org/2000/svg" width="114.286" height="80" viewBox="0 0 114.286 80">
  <path id="Icon_awesome-user-friends" data-name="Icon awesome-user-friends" d="M34.286,42.25a20,20,0,1,0-20-20A19.99,19.99,0,0,0,34.286,42.25ZM48,47.964H46.518a27.613,27.613,0,0,1-24.464,0H20.571A20.577,20.577,0,0,0,0,68.536v5.143A8.574,8.574,0,0,0,8.571,82.25H60a8.574,8.574,0,0,0,8.571-8.571V68.536A20.577,20.577,0,0,0,48,47.964ZM85.714,42.25A17.143,17.143,0,1,0,68.571,25.107,17.147,17.147,0,0,0,85.714,42.25Zm8.571,5.714h-.679a22.518,22.518,0,0,1-15.786,0h-.679a19.834,19.834,0,0,0-9.946,2.75,26.133,26.133,0,0,1,7.089,17.821v6.857c0,.393-.089.768-.107,1.143h31.536a8.574,8.574,0,0,0,8.571-8.571,19.99,19.99,0,0,0-20-20Z" transform="translate(0 -2.25)" fill="#fff"/>
</svg>
