<svg id="SvgjsSvg1014" width="288" height="288" xmlns="http://www.w3.org/2000/svg" version="1.1" xmlns:xlink="http://www.w3.org/1999/xlink" xmlns:svgjs="http://svgjs.com/svgjs"><defs id="SvgjsDefs1015"></defs><g id="SvgjsG1016"><svg xmlns="http://www.w3.org/2000/svg" width="288" height="288" version="1.0" viewBox="0 0 512 512"><g transform="matrix(.1 0 0 -.1 0 512)" fill="#ffffff" class="color000 svgShape"><path d="M758 5105 c-237 -45 -461 -191 -598 -390 -46 -68 -107 -203 -132-292 -31 -113 -31 -344 0 -458 45 -166 136 -319 258 -436 85 -81 140 -118 246
-169 295 -141 642 -113 918 73 66 45 176 153 226 223 57 80 119 210 146 309
18 66 22 107 22 230 0 174 -18 254 -84 394 -52 109 -111 190 -196 272 -173
164 -368 246 -609 254 -79 3 -146 0 -197 -10z m310 -201 c260 -54 459 -232
549 -489 25 -73 27 -93 27 -220 0 -127 -2 -147 -27 -220 -16 -44 -47 -111 -69
-150 -49 -83 -170 -206 -251 -254 -190 -112 -433 -131 -636 -50 -487 195 -616
815 -247 1185 174 174 416 247 654 198z" fill="#ffffff" class="color000 svgShape"></path><path d="M884 4770c-52-21-54-33-54-339l0-284 99-98c95-96 99-99 143-99 35 0 51 6 71 25 53 54 40 108-48 195l-65 64 0 224c0 239-6 274-51 306-25 17-61 20-95 6zM3094 3735c-251-54-452-246-514-491-18-68-20-111-20-359 0-248 2-291 20-359 31-121 82-208 180-307l86-86-243-55-243-54 0 423c0 460-1 466-55 491-37 17-733 17-770 0-47-21-67-82-43-133 24-52 41-55 368-55l300 0 0-700 0-700-339 0-340 0-3 288-3 287-28 57c-53 107-143 162-267 163-62 0-85-5-132-28-64-32-111-80-142-146-20-43-21-66-24-333l-3-288-340 0-339 0 0 700 0 700 300 0c327 0 344 3 368 55 15 33 15 57 0 90-24 53-36 55-428 55-392 0-404-2-428-55-9-19-12-231-12-846 0-890-2-861 55-887 19-9 137-12 425-12l400 0 0-94 0-93-51-7c-145-19-254-137-266-287l-6-69-239 0c-260 0-283-4-306-55-17-36-17-454 0-490 27-59-152-55 2548-55 2700 0 2521-4 2548 55 9 19 12 231 12 846 0 890 2 861-55 887-18 9-118 12-341 12l-315 0-52 57c-60 65-145 123-225 153-31 12-161 44-290 72l-233 51 33 26c141 106 234 271 258 455 18 130 8 552-14 631-97 349-447 565-792 490zm249-200c135-35 252-127 312-247 31-62 54-152 43-164-3-2-59 27-124 66-153 90-174 91-246 19-64-65-138-113-213-141-49-18-87-23-207-26l-148-4 0 54c1 198 151 388 351 442 71 19 161 20 232 1zm238-581l129-76 0-96c0-136-15-216-55-298-40-82-133-177-209-213-244-119-527-19-644 226-35 75-37 82-40 209l-4 132 163 5c180 5 226 15 342 73 38 19 92 52 120 74 29 22 56 40 61 40 4 0 66-34 137-76zm-201-934c0-14-144-390-150-390-5 0-150 378-150 391 0 6 300 5 300-1zm-2151-84c50-27 51-33 51-521l0-455-100 0-100 0 0 458c1 489 1 490 51 518 31 17 64 17 98 0zm1780-303c63-170 122-324 132-344 27-55 83-73 138-44 34 17 36 21 177 400 59 160 108 291 108 292 3 6 470-103 501-117l40-18-193-1c-210-1-238-7-260-56-9-19-12-173-12-585l0-560-745 0-745 0 0 275 0 275 65 0c75 0 116 17 133 55 8 18 12 112 12 314l0 289 32 13c22 9 418 103 498 118 3 1 57-137 119-306zm1911-133l0-100-540 0-540 0 0 100 0 100 540 0 540 0 0-100zm0-400l0-100-540 0-540 0 0 100 0 100 540 0 540 0 0-100zm-2970-225l0-275-74 0-73 0-5 63c-13 155-121 273-270 293l-48 7 0 93 0 94 235 0 235 0 0-275zm2970-175l0-100-540 0-540 0 0 100 0 100 540 0 540 0 0-100zm-3380 45c36-19 60-62 60-110l0-35-420 0-420 0 0 35c0 47 23 91 58 109 41 23 679 23 722 1zm3380-445l0-100-2360 0-2360 0 0 100 0 100 2360 0 2360 0 0-100z" fill="#ffffff" class="color000 svgShape"></path><path d="M1131 2936 c-87 -48 -50 -186 49 -186 51 0 100 49 100 99 0 75 -83
124 -149 87z" fill="#ffffff" class="color000 svgShape"></path></g></svg></g></svg>