<svg id="SvgjsSvg1006" width="288" height="288" xmlns="http://www.w3.org/2000/svg" version="1.1" xmlns:xlink="http://www.w3.org/1999/xlink" xmlns:svgjs="http://svgjs.com/svgjs"><defs id="SvgjsDefs1007"></defs><g id="SvgjsG1008" transform="matrix(1,0,0,1,0,0)"><svg xmlns="http://www.w3.org/2000/svg" data-name="Layer 1" viewBox="0 0 32 40" width="288" height="288"><path d="M27,3H5A4.81,4.81,0,0,0,0,7.57v9.82A4.81,4.81,0,0,0,5,22H20.34a3.28,3.28,0,0,1,2.16.79l7.83,7A1,1,0,0,0,32,29V7.57A4.81,4.81,0,0,0,27,3Zm3,23.77-6.16-5.5a5.23,5.23,0,0,0-3.5-1.3H5a2.81,2.81,0,0,1-3-2.57V7.57A2.81,2.81,0,0,1,5,5H27a2.81,2.81,0,0,1,3,2.57Z" fill="#ffffff" class="color000 svgShape"></path><path d="M16 7a1 1 0 00-1 1v5a1 1 0 002 0V8A1 1 0 0016 7zM16.71 16.29a1 1 0 00-1.42 0 1.15 1.15 0 00-.21.33.94.94 0 000 .76 1.16 1.16 0 00.21.33 1 1 0 001.42 0 1.16 1.16 0 00.21-.33.94.94 0 000-.76A1.15 1.15 0 0016.71 16.29z" fill="#ffffff" class="color000 svgShape"></path><text y="47" font-family="'Helvetica Neue', Helvetica, Arial-Unicode, Arial, Sans-serif" font-size="5" font-weight="bold" svgjs:data="{&quot;leading&quot;:&quot;1.3&quot;}">Created by Kantor Tegalsari</text><text y="52" font-family="'Helvetica Neue', Helvetica, Arial-Unicode, Arial, Sans-serif" font-size="5" font-weight="bold" svgjs:data="{&quot;leading&quot;:&quot;1.3&quot;}">from the Noun Project</text></svg></g></svg>