<svg id="Icon_metro-calendar" data-name="Icon metro-calendar" xmlns="http://www.w3.org/2000/svg" width="75" height="80" viewBox="0 0 75 80">
  <path id="Icon_metro-calendar-2" data-name="Icon metro-calendar" d="M27.571,31.928h10v10h-10Zm15,0h10v10h-10Zm15,0h10v10h-10Zm-45,30h10v10h-10Zm15,0h10v10h-10Zm15,0h10v10h-10Zm-15-15h10v10h-10Zm15,0h10v10h-10Zm15,0h10v10h-10Zm-45,0h10v10h-10Zm55-45v5h-10v-5h-35v5h-10v-5h-10v80h75v-80h-10Zm5,75h-65v-55h65Z" transform="translate(-2.571 -1.928)" fill="#fff"/>
</svg>
