<svg id="SvgjsSvg1041" width="288" height="288" xmlns="http://www.w3.org/2000/svg" version="1.1" xmlns:xlink="http://www.w3.org/1999/xlink" xmlns:svgjs="http://svgjs.com/svgjs"><defs id="SvgjsDefs1042"></defs><g id="SvgjsG1043"><svg xmlns="http://www.w3.org/2000/svg" width="288" height="288" version="1.0" viewBox="0 0 512 512"><g transform="matrix(.1 0 0 -.1 0 512)" fill="#ffffff" class="color000 svgShape"><path d="M631 5103 c-25 -9 -63 -35 -87 -60 -81 -82 -75 86 -72 -1988 l3-1850 22 -40 c28 -52 68 -89 123 -114 44 -20 62 -21 813 -21 483 0 775 4 787
10 48 26 38 120 -15 140 -17 6 -304 10 -775 10 l-748 0 -26 31 -26 31 0 1825
0 1825 29 29 29 29 1487 0 1487 0 29 -29 29 -29 0 -1357 0 -1356 25 -24 c32
-33 78 -33 110 0 l25 24 0 1359 c0 1526 5 1417 -75 1497 -80 81 46 75 -1634
74 -1330 0 -1501 -2 -1540 -16z" fill="#ffffff" class="color000 svgShape"></path><path d="M1223 4336c-168-53-271-231-229-396 28-110 81-175 186-231 38-20 59-24 140-24 101 0 139 13 217 72 66 51 135 206 119 269-10 38-42 64-79 64-43 0-72-32-81-89-9-59-29-95-73-128-31-24-46-28-103-28-57 0-72 4-103 28-50 38-71 81-70 144 1 93 81 173 172 173 42 0 81 38 81 80 0 47-38 80-92 79-24 0-62-6-85-13zM1862 4237c-30-32-29-77 4-108l26-24 511-3c282-2 527 0 545 3 18 3 42 15 53 26 26 26 25 83-1 109-20 20-33 20-568 20l-549 0-21-23zM1861 3894c-35-45-26-95 20-119 24-13 133-15 727-15 682 0 700 0 725 20 13 11 28 31 31 45 7 29-15 79-39 89-9 3-338 6-730 6l-714 0-20-26zM1230 3396c-62-16-111-48-162-105-145-161-90-425 107-521 42-21 64-25 145-25 81 0 103 4 145 25 100 49 170 146 190 267 7 45-12 96-40 107-61 23-109-11-119-86-13-87-73-148-154-156-65-6-114 11-151 53-57 65-61 155-10 227 24 33 95 68 138 68 21 0 41 9 56 25 53 52 15 136-62 134-21 0-58-6-83-13zM1862 3297c-45-47-17-120 50-132 18-3 169-5 335-3 297 3 303 3 325 25 31 31 30 89-1 114-22 18-46 19-355 19l-333 0-21-23zM2960 3300c-59-27-115-83-148-145l-27-50-3-555-3-555-143-145c-151-153-186-202-218-303-38-119-31-177 72-612 110-468 114-483 156-565 93-182 266-314 466-354 114-23 884-23 996 0 240 49 429 219 510 459l27 80 3 523c3 588 3 591-66 679-22 27-62 61-93 78-73 40-178 43-257 6l-51-24-43 44c-91 94-216 119-331 66l-57-26-42 45c-23 25-60 55-83 66-53 28-156 35-212 15l-42-14-3 541c-3 540-3 541-26 591-28 60-82 119-137 148-60 31-185 35-245 7zm181-156c18-9 38-32 50-57 18-40 19-77 19-774l0-732 26-20c30-23 71-27 95-8 30 23 39 56 39 144 0 70 4 95 20 120 37 61 116 81 177 43 51-31 58-52 63-211 4-124 8-150 23-167 26-29 62-35 97-17 34 18 38 29 43 145 4 107 22 145 83 171 67 30 129 7 170-61 5-8 11-82 14-163 5-141 6-150 29-168 32-26 77-24 106 6 23 22 25 32 25 110 0 141 40 200 135 200 60 0 97-25 121-82 18-41 20-944 3-1039-35-194-196-363-390-409-93-21-864-22-957 0-151 36-276 134-342 269-33 68-55 147-135 489-105 449-111 495-74 594 17 45 41 77 110 148l88 90 1-150c0-116 3-155 15-172 31-44 111-37 134 13 8 18 11 248 11 810 0 714 2 789 17 821 31 66 116 93 184 57zM1865 2955c-40-39-32-96 16-120 23-12 86-15 344-15l317 0 29 29c16 16 29 37 29 46 0 24-27 72-45 79-9 3-163 6-341 6l-325 0-24-25zM1245 2461c-151-40-257-171-258-320-1-82 14-133 55-195 62-94 162-146 279-146 93 0 166 29 228 89 58 56 84 105 101 184 18 90-8 137-78 137-39 0-68-35-76-92-13-87-73-148-154-156-65-6-114 11-151 53-57 65-61 155-10 227 24 33 95 68 138 68 66 0 104 79 63 130-20 25-86 35-137 21z" fill="#ffffff" class="color000 svgShape"></path><path d="M1861 2354c-38-48-16-115 42-129 12-3 163-5 334-3 308 3 313 3 335 25 31 31 30 89-1 114-22 18-46 19-356 19l-334 0-20-26zM1865 2015c-30-29-32-74-6-106 19-24 21-24 261-27 209-3 245-1 266 13 33 21 46 58 33 92-19 51-26 52-287 53l-243 0-24-25z" fill="#ffffff" class="color000 svgShape"></path></g></svg></g></svg>